<svg xmlns="http://www.w3.org/2000/svg" fill="none" viewBox="0 0 14 14"><path stroke="#f9f9f9" stroke-linecap="round" stroke-linejoin="round" d="M0.507528 0.5L2.9497 0.5L3.8197 9.15C3.85586 9.38845 3.97698 9.6058 4.16075 9.762C4.34451 9.9182 4.57854 10.0027 4.8197 10H11.1197C11.3378 10.0114 11.5536 9.95107 11.7341 9.82829C11.9147 9.7055 12.0501 9.52698 12.1197 9.32L13.4497 5.32C13.4993 5.16962 13.5125 5.0096 13.4881 4.85314C13.4638 4.69667 13.4026 4.54822 13.3097 4.42C13.2129 4.28368 13.0834 4.17381 12.9332 4.10043C12.783 4.02706 12.6167 3.99253 12.4497 4H3.2997"></path><path stroke="#f9f9f9" stroke-linecap="round" stroke-linejoin="round" d="M10.9497 13.5C10.6736 13.5 10.4497 13.2761 10.4497 13C10.4497 12.7239 10.6736 12.5 10.9497 12.5C11.2258 12.5 11.4497 12.7239 11.4497 13C11.4497 13.2761 11.2258 13.5 10.9497 13.5Z"></path><path stroke="#f9f9f9" stroke-linecap="round" stroke-linejoin="round" d="M4.44971 13.5C4.17356 13.5 3.94971 13.2761 3.94971 13C3.94971 12.7239 4.17356 12.5 4.44971 12.5C4.72585 12.5 4.94971 12.7239 4.94971 13C4.94971 13.2761 4.72585 13.5 4.44971 13.5Z"></path></svg>