<svg xmlns="http://www.w3.org/2000/svg" viewBox="0 0 2500 2500" version="1.1">
	<path d="M 1873.500 1.445 C 1854.554 5.886, 1835.906 16.374, 1824.993 28.728 C 1804.226 52.236, 1796.563 84.915, 1805.114 113.500 C 1812.779 139.123, 1828.433 157.892, 1851.696 169.353 C 1855.438 171.197, 1899.569 188.156, 1949.764 207.039 C 1999.959 225.923, 2040.684 241.697, 2040.264 242.093 C 2039.844 242.489, 1621.225 433.010, 1110 665.474 C 598.775 897.937, 178.097 1089.566, 175.159 1091.317 C 160.596 1099.997, 149.529 1112.065, 141.980 1127.500 C 135.403 1140.946, 133.012 1149.973, 132.306 1164.023 C 130.559 1198.771, 149.031 1230.873, 180 1246.911 C 201.846 1258.225, 226.861 1260.303, 249 1252.643 C 254.225 1250.836, 676.257 1059.346, 1186.849 827.111 C 1697.441 594.875, 2115.326 405.008, 2115.483 405.182 C 2115.639 405.357, 2100.490 446.450, 2081.817 496.500 C 2063.145 546.550, 2046.754 591.775, 2045.393 597 C 2042.122 609.554, 2041.955 624.864, 2044.949 637.636 C 2047.597 648.929, 2056.148 666.367, 2063.277 675.009 C 2081.759 697.415, 2110.889 709.433, 2140.435 706.843 C 2170.239 704.229, 2198.224 685.398, 2211.534 659 C 2214.986 652.154, 2358.263 267.677, 2361.714 256 C 2365.280 243.933, 2365.472 225.266, 2362.157 213 C 2354.372 184.200, 2336.209 162.670, 2310.500 151.767 C 2302.392 148.328, 1921.259 5.123, 1914.500 2.975 C 1905.501 0.116, 1882.785 -0.732, 1873.500 1.445 M 1992.500 984.647 C 1948.109 989.793, 1912.530 1006.598, 1882.549 1036.579 C 1859.390 1059.738, 1843.555 1087.797, 1835.610 1119.755 C 1830.165 1141.654, 1830.500 1097.965, 1830.500 1786 C 1830.500 2401.432, 1830.566 2424.782, 1832.332 2432.311 C 1839.291 2461.984, 1861.811 2487.203, 1890.164 2497.072 L 1898.500 2499.973 2141.856 2499.987 C 2404.963 2500.001, 2389.128 2500.312, 2401.593 2494.894 C 2409.641 2491.396, 2422.044 2482.660, 2429.340 2475.352 C 2441.665 2463.005, 2450.160 2447.637, 2453.416 2431.792 C 2454.852 2424.806, 2455 2364.294, 2455 1785.536 C 2455 1216.965, 2454.832 1145.868, 2453.467 1136.781 C 2442.652 1064.777, 2389.868 1006.582, 2319.500 989.079 C 2299.085 984.002, 2298.625 983.989, 2141.699 984.150 C 2061.289 984.232, 1994.150 984.456, 1992.500 984.647 M 2009 1743 L 2009 2323 2143 2323 L 2277 2323 2277 1743 L 2277 1163 2143 1163 L 2009 1163 2009 1743 M 1088.500 1253.979 C 1050.331 1260.138, 1017.478 1276.813, 990.277 1303.833 C 963.077 1330.852, 946.233 1363.789, 939.306 1403.500 C 937.666 1412.904, 937.543 1443.162, 937.241 1911 C 937.029 2238.770, 937.262 2412.253, 937.923 2419.500 C 939.225 2433.753, 941.017 2440.482, 946.447 2451.500 C 957.004 2472.923, 976.414 2490.158, 998.176 2497.434 L 1005.853 2500 1250 2500 L 1494.147 2500 1501.824 2497.434 C 1523.586 2490.158, 1542.996 2472.923, 1553.553 2451.500 C 1558.983 2440.482, 1560.775 2433.753, 1562.077 2419.500 C 1562.738 2412.253, 1562.971 2238.770, 1562.759 1911 C 1562.456 1441.780, 1562.338 1412.932, 1560.681 1403.500 C 1553.690 1363.699, 1536.868 1330.797, 1509.723 1303.833 C 1481.988 1276.281, 1447.812 1259.276, 1408.720 1253.573 C 1399.268 1252.194, 1379.549 1252.013, 1248.720 1252.102 C 1110.901 1252.196, 1098.660 1252.339, 1088.500 1253.979 M 1116 1876.500 L 1116 2323 1250 2323 L 1384 2323 1384 1876.500 L 1384 1430 1250 1430 L 1116 1430 1116 1876.500 M 194.500 1521.984 C 147.360 1530.358, 107.484 1554.633, 80.132 1591.607 C 62.155 1615.909, 51.453 1641.610, 46.557 1672.239 C 45.168 1680.927, 45 1722.031, 45 2053.031 C 45 2462.208, 44.511 2430.688, 51.107 2446.582 C 61.163 2470.810, 85.166 2492.324, 109.045 2498.512 C 114.055 2499.810, 145.892 2499.998, 358.144 2499.987 L 601.500 2499.973 609.836 2497.072 C 621.712 2492.938, 632.970 2485.831, 642.422 2476.500 C 655.647 2463.445, 663.083 2450.466, 667.757 2432.281 C 669.399 2425.893, 669.500 2403.988, 669.500 2054.500 C 669.500 1749.085, 669.263 1681.909, 668.157 1674.500 C 662.158 1634.308, 644.926 1599.733, 617.060 1571.979 C 593.853 1548.865, 567.392 1533.653, 536.350 1525.580 C 514.125 1519.801, 520.664 1519.999, 356 1520.108 C 215.544 1520.201, 203.771 1520.337, 194.500 1521.984 M 223.667 1698.667 C 223.300 1699.033, 223 1839.658, 223 2011.167 L 223 2323 357 2323 L 491 2323 491 2010.500 L 491 1698 357.667 1698 C 284.333 1698, 224.033 1698.300, 223.667 1698.667" stroke="none" fill="currentColor" fill-rule="evenodd"></path>
</svg>