<svg xmlns="http://www.w3.org/2000/svg" height="40" viewBox="0 -960 960 960" width="40"><path d="M286.525-67.667q-30.858 0-52.691-21.975Q212-111.617 212-142.475q0-30.858 21.975-52.691Q255.95-217 286.808-217q30.859 0 52.692 21.975t21.833 52.833q0 30.859-21.975 52.692-21.974 21.833-52.833 21.833Zm402.667 0q-30.858 0-52.692-21.975-21.833-21.975-21.833-52.833 0-30.858 21.975-52.691Q658.617-217 689.475-217q30.859 0 52.692 21.975T764-142.192q0 30.859-21.975 52.692t-52.833 21.833ZM449-628.333q-13.333-14.178-13.333-32.589 0-18.411 13.333-31.744L488.001-732H362q-19.5 0-33.083-12.929-13.583-12.93-13.583-32.527t13.583-32.737q13.583-13.14 33.083-13.14h126.001l-38.334-39.333q-13.333-12.667-13.696-31.548-.363-18.881 12.936-32.427 13.298-13.751 32.195-13.388 18.898.363 32.231 13.696l112.667 112q7.818 8.267 11.575 17.692 3.758 9.425 3.758 19.397 0 9.972-3.758 19.308Q633.818-748.6 626-741L513.333-628.333Q500-615 481.167-615q-18.834 0-32.167-13.333ZM286.667-272.334q-49.627 0-74.98-41.833t-.353-85.166l55.667-100L125.667-801H88q-19.408 0-32.537-13.123-13.13-13.122-13.13-32.52 0-19.399 13.13-32.545Q68.592-892.333 88-892.333h62.334q15.333 0 28.399 7.681 13.067 7.681 18.6 21.652L348-543h284.667l135-243.333q5.456-11.167 16.817-17.084 11.361-5.916 24.466-6.25 26.674-.333 39.862 22.5 13.188 22.834-.145 46.5l-137 246q-11.464 20.143-30.046 32.071-18.583 11.929-44.954 11.929H345l-48.334 87.001h434.001q19.408 0 32.537 13.122 13.129 13.122 13.129 32.521 0 19.398-13.129 32.544-13.129 13.145-32.537 13.145h-444Z"/></svg>